<svg width="16" height="17" viewBox="0 0 16 17" fill="none" xmlns="http://www.w3.org/2000/svg">
<path d="M1.76518 14.1435V3.55244C1.76518 3.31836 1.6722 3.09387 1.50668 2.92835C1.34116 2.76283 1.11667 2.66985 0.882592 2.66985C0.648514 2.66985 0.424023 2.76283 0.258505 2.92835C0.0929871 3.09387 0 3.31836 0 3.55244V15.0261C0 15.4943 0.185974 15.9433 0.517011 16.2743C0.848047 16.6053 1.29703 16.7913 1.76518 16.7913H13.2389C13.473 16.7913 13.6975 16.6983 13.863 16.5328C14.0285 16.3673 14.1215 16.1428 14.1215 15.9087C14.1215 15.6747 14.0285 15.4502 13.863 15.2846C13.6975 15.1191 13.473 15.0261 13.2389 15.0261H2.64778C2.4137 15.0261 2.18921 14.9332 2.02369 14.7676C1.85817 14.6021 1.76518 14.3776 1.76518 14.1435ZM14.3421 0.904663C15.1947 0.904663 15.8867 1.59662 15.8867 2.4492V11.7164C15.8867 12.1261 15.7239 12.5189 15.4343 12.8086C15.1446 13.0982 14.7518 13.261 14.3421 13.261H5.07491C4.66527 13.261 4.27241 13.0982 3.98275 12.8086C3.6931 12.5189 3.53037 12.1261 3.53037 11.7164V2.4492C3.53037 1.59662 4.22232 0.904663 5.07491 0.904663H14.3421ZM13.2389 2.66985H6.17815C5.94407 2.66985 5.71958 2.76283 5.55406 2.92835C5.38854 3.09387 5.29555 3.31836 5.29555 3.55244V10.6132C5.29555 10.8473 5.38854 11.0717 5.55406 11.2373C5.71958 11.4028 5.94407 11.4958 6.17815 11.4958H13.2389C13.473 11.4958 13.6975 11.4028 13.863 11.2373C14.0285 11.0717 14.1215 10.8473 14.1215 10.6132V3.55244C14.1215 3.31836 14.0285 3.09387 13.863 2.92835C13.6975 2.76283 13.473 2.66985 13.2389 2.66985Z" fill="#B5B5B5"/>
</svg>
