<svg width="15" height="17" viewBox="0 0 15 17" fill="none" xmlns="http://www.w3.org/2000/svg">
<path d="M6.21082 11.4762H6.30895C6.50944 11.4762 6.70171 11.3966 6.84348 11.2548C6.98525 11.113 7.06489 10.9208 7.06489 10.7203V9.12126H5.49492V10.7603C5.49492 11.1559 5.81519 11.4762 6.21082 11.4762ZM9.35078 13.8312H9.4489C9.64939 13.8312 9.84167 13.7515 9.98343 13.6098C10.1252 13.468 10.2048 13.2757 10.2048 13.0752V9.12126H8.63487V13.1153C8.63487 13.5109 8.95514 13.8312 9.35078 13.8312ZM12.4907 11.4762H12.5889C12.6881 11.4762 12.7864 11.4567 12.8781 11.4187C12.9699 11.3807 13.0532 11.325 13.1234 11.2548C13.1936 11.1846 13.2493 11.1013 13.2873 11.0096C13.3252 10.9178 13.3448 10.8195 13.3448 10.7203V9.12126H11.7748V10.7603C11.7748 11.1559 12.0951 11.4762 12.4907 11.4762ZM14.1298 7.55128H4.70993V5.9813C4.70993 5.56492 4.87534 5.16559 5.16976 4.87116C5.46419 4.57674 5.86352 4.41133 6.2799 4.41133H8.63487V2.05637H1.56998V15.4012C1.56998 15.6094 1.48727 15.809 1.34006 15.9562C1.19284 16.1034 0.99318 16.1861 0.784988 16.1861C0.576796 16.1861 0.377131 16.1034 0.229918 15.9562C0.0827038 15.809 0 15.6094 0 15.4012V2.05637C0 1.63998 0.165408 1.24065 0.459835 0.946224C0.754263 0.651797 1.15359 0.486389 1.56998 0.486389H8.63487C9.05125 0.486389 9.45058 0.651797 9.74501 0.946224C10.0394 1.24065 10.2048 1.63998 10.2048 2.05637V4.41133H12.5598C12.9762 4.41133 13.3755 4.57674 13.6699 4.87116C13.9644 5.16559 14.1298 5.56492 14.1298 5.9813V7.55128Z" fill="#B5B5B5"/>
</svg>
