<svg width="22" height="15" viewBox="0 0 22 15" fill="none" xmlns="http://www.w3.org/2000/svg">
<path d="M20.8298 4.05286H19.2914C18.8779 4.05286 18.5426 4.388 18.5426 4.80161V6.77004H8.42028C8.42477 6.72062 8.42787 6.6708 8.42787 6.62029V6.12461C8.42787 5.21632 7.6889 4.47735 6.78061 4.47735H3.31308C3.26257 4.47735 3.21275 4.48045 3.16333 4.48494V1.49003C3.16333 1.07641 2.82809 0.741272 2.41458 0.741272H0.748753C0.335242 0.741272 0 1.07641 0 1.49003V13.8872C0 14.3008 0.335242 14.6359 0.748753 14.6359H2.41458C2.82809 14.6359 3.16333 14.3008 3.16333 13.8872V12.3858H18.5425V13.8872C18.5425 14.3008 18.8778 14.6359 19.2913 14.6359H20.8297C21.2432 14.6359 21.5785 14.3008 21.5785 13.8872V4.80161C21.5786 4.3881 21.2433 4.05286 20.8298 4.05286ZM18.5425 9.40225H3.16333V8.26754H3.31308H6.78061H18.5425V9.40225Z" fill="#B5B5B5"/>
</svg>
