<svg width="17" height="17" viewBox="0 0 17 17" fill="none" xmlns="http://www.w3.org/2000/svg">
<path d="M11.0986 0C11.6502 4.30644e-05 12.1849 0.189647 12.6133 0.537041C13.0418 0.884436 13.3377 1.36851 13.4517 1.90816L14.0755 4.85138C14.6265 4.9553 15.1239 5.24845 15.4816 5.68016C15.8394 6.11188 16.0352 6.65503 16.035 7.21574V14.4315C16.035 14.8567 15.866 15.2646 15.5653 15.5653C15.2646 15.866 14.8567 16.035 14.4315 16.035H13.6297C13.4171 16.035 13.2132 15.9505 13.0628 15.8001C12.9124 15.6498 12.828 15.4459 12.828 15.2332V13.6297H3.20699V15.2332C3.20699 15.4459 3.12252 15.6498 2.97217 15.8001C2.82181 15.9505 2.61788 16.035 2.40525 16.035H1.6035C1.17822 16.035 0.770367 15.866 0.469653 15.5653C0.168939 15.2646 1.26574e-07 14.8567 1.26574e-07 14.4315V7.21574C-0.000181698 6.65503 0.195535 6.11188 0.553322 5.68016C0.911109 5.24845 1.40848 4.9553 1.95947 4.85138L2.58323 1.90736C2.69738 1.36786 2.99345 0.883966 3.42184 0.53673C3.85022 0.189494 4.38492 4.1961e-06 4.93636 0H11.0986ZM13.6297 6.41399H2.40525C2.19261 6.41399 1.98868 6.49846 1.83832 6.64881C1.68797 6.79917 1.6035 7.0031 1.6035 7.21574V12.0262H14.4315V7.21574C14.4315 7.0031 14.347 6.79917 14.1966 6.64881C14.0463 6.49846 13.8424 6.41399 13.6297 6.41399ZM11.6254 8.01748C11.9443 8.01748 12.2502 8.14419 12.4757 8.36972C12.7013 8.59526 12.828 8.90115 12.828 9.22011C12.828 9.53906 12.7013 9.84495 12.4757 10.0705C12.2502 10.296 11.9443 10.4227 11.6254 10.4227C11.3064 10.4227 11.0005 10.296 10.775 10.0705C10.5494 9.84495 10.4227 9.53906 10.4227 9.22011C10.4227 8.90115 10.5494 8.59526 10.775 8.36972C11.0005 8.14419 11.3064 8.01748 11.6254 8.01748ZM4.40962 8.01748C4.72857 8.01748 5.03446 8.14419 5.26 8.36972C5.48553 8.59526 5.61224 8.90115 5.61224 9.22011C5.61224 9.53906 5.48553 9.84495 5.26 10.0705C5.03446 10.296 4.72857 10.4227 4.40962 10.4227C4.09066 10.4227 3.78477 10.296 3.55923 10.0705C3.3337 9.84495 3.20699 9.53906 3.20699 9.22011C3.20699 8.90115 3.3337 8.59526 3.55923 8.36972C3.78477 8.14419 4.09066 8.01748 4.40962 8.01748ZM11.0986 1.6035H4.93636L4.84256 1.60911C4.67591 1.62862 4.51958 1.69993 4.3956 1.81298C4.27161 1.92603 4.18622 2.07514 4.15145 2.23928L3.60787 4.81049H12.4271L11.8835 2.23928L11.8587 2.14869C11.805 1.9897 11.7027 1.85157 11.5664 1.75377C11.43 1.65596 11.2664 1.6034 11.0986 1.6035Z" fill="#B5B5B5"/>
</svg>
