<svg width="265" height="57" viewBox="0 0 265 57" fill="none" xmlns="http://www.w3.org/2000/svg">
<path d="M87.8764 51.3077H78.2731L67.3297 14.2769H75.8164L83.4097 44.8385L90.7797 14.2769H98.8197L87.8764 51.3077ZM109.54 18.0692C109.54 20.3 107.753 22.0846 105.296 22.0846C102.84 22.0846 101.053 20.3 101.053 18.0692C101.053 15.8385 102.84 14.0538 105.296 14.0538C107.753 14.0538 109.54 15.8385 109.54 18.0692ZM108.87 51.3077H101.723V24.5385H108.87V51.3077ZM129.416 51.3077H120.93L112.22 24.7616H120.036L125.396 45.7308L130.756 24.7616H138.126L129.416 51.3077ZM163.81 47.2923L162.246 51.9769C159.12 51.7538 157.11 50.6385 156.216 48.1846C154.206 51.0846 151.303 52.2 148.176 52.2C142.816 52.2 139.466 48.8539 139.466 43.9462C139.466 38.1462 143.933 35.0231 151.75 35.0231H154.876V33.4615C154.876 30.1154 153.536 29 150.186 29C148.4 29 145.943 29.4462 143.04 30.3385L141.476 25.6538C144.826 24.3154 148.4 23.6462 151.303 23.6462C158.673 23.6462 161.8 26.9923 161.8 33.0154V43.7231C161.8 45.9539 162.47 46.8462 163.81 47.2923ZM154.876 43.9462V38.8154H152.42C148.623 38.8154 146.613 40.1538 146.613 43.0538C146.613 45.5077 147.73 46.8462 149.963 46.8462C152.196 46.8462 153.76 45.9539 154.876 43.9462ZM180.113 36.8077H176.093V51.3077H168.276V14.5H179.89C189.716 14.5 194.853 18.0692 194.853 25.6538C194.853 30.5615 192.396 33.4615 187.483 35.6923L197.086 51.5308H188.153L180.113 36.8077ZM176.093 31.2308H180.113C184.133 31.2308 186.366 29.4461 186.366 25.4308C186.366 21.6385 184.133 20.0769 179.443 20.0769H175.87V31.2308H176.093ZM220.983 40.1539H204.233C204.68 45.2846 207.136 46.8462 210.486 46.8462C212.72 46.8462 214.73 46.1769 216.963 44.6154L219.866 48.6307C217.186 50.6384 213.836 52.2 209.816 52.2C201.33 52.2 196.863 46.6231 196.863 38.1462C196.863 30.1154 201.106 23.8693 208.923 23.8693C216.516 23.8693 220.983 29 220.983 37.4769C221.206 38.1461 220.983 39.2615 220.983 40.1539ZM214.06 35.2461C214.06 31.2307 212.72 28.5538 209.37 28.5538C206.466 28.5538 204.903 30.3385 204.456 35.4692H214.283L214.06 35.2461ZM248.676 47.2923L247.113 51.9769C243.986 51.7538 241.976 50.6385 240.86 48.1846C238.85 51.0846 235.946 52.2 232.82 52.2C227.46 52.2 224.11 48.8539 224.11 43.9462C224.11 38.1462 228.576 35.0231 236.393 35.0231H239.52V33.4615C239.52 30.1154 238.18 29 234.83 29C233.043 29 230.586 29.4462 227.683 30.3385L226.12 25.6538C229.47 24.3154 233.043 23.6462 235.946 23.6462C243.316 23.6462 246.443 26.9923 246.443 33.0154V43.7231C246.89 45.9539 247.56 46.8462 248.676 47.2923ZM239.743 43.9462V38.8154H237.286C233.49 38.8154 231.48 40.1538 231.48 43.0538C231.48 45.5077 232.596 46.8462 234.83 46.8462C237.063 46.8462 238.626 45.9539 239.743 43.9462ZM252.696 44.6154V12.9384L260.066 12.0461V44.3923C260.066 45.5077 260.513 46.177 261.63 46.177C262.3 46.177 262.746 46.1769 262.97 45.9539L264.533 51.0846C263.416 51.5308 261.63 51.9769 259.843 51.9769C255.376 51.9769 252.696 49.3 252.696 44.6154Z" fill="#1E9EDC"/>
<path d="M54.5997 51.3077V28.7769L43.433 24.7616V53.0923C38.9664 53.3154 35.6164 53.0923 35.6164 53.0923L34.9464 14.2769L66.6597 28.5538L34.4997 0C34.4997 0 36.733 -1.38283e-05 25.5664 7.5846V2.00768H28.5L26.013 0L16.633 9.59228V15.6154C12.1664 20.7462 7.92303 22.9769 5.46637 25.4308C-0.340298 31.9 -0.563617 39.4846 4.57305 45.2846C9.03972 50.1923 19.313 56.2154 35.6164 56.2154C50.803 56.2154 65.0964 49.5231 71.3497 41.4923C67.3297 45.7308 61.2997 48.8538 54.5997 51.3077ZM14.3997 45.9539C5.46637 42.6077 7.02971 36.1384 9.48637 32.1231C11.943 28.1077 14.3997 27.4384 14.3997 27.4384V45.9539ZM27.7997 36.5846L18.8664 38.5923V28.1077L27.7997 24.7616V36.5846Z" fill="#1190CD"/>
</svg>
