<svg width="72" height="57" viewBox="0 0 72 57" fill="none" xmlns="http://www.w3.org/2000/svg">
<path d="M54.5997 51.3077V28.7769L43.433 24.7616V53.0923C38.9664 53.3154 35.6164 53.0923 35.6164 53.0923L34.9464 14.2769L66.6597 28.5538L34.4997 0C34.4997 0 36.733 -1.38283e-05 25.5664 7.5846V2.00768H28.5L26.013 0L16.633 9.59228V15.6154C12.1664 20.7462 7.92303 22.9769 5.46637 25.4308C-0.340298 31.9 -0.563617 39.4846 4.57305 45.2846C9.03972 50.1923 19.313 56.2154 35.6164 56.2154C50.803 56.2154 65.0964 49.5231 71.3497 41.4923C67.3297 45.7308 61.2997 48.8538 54.5997 51.3077ZM14.3997 45.9539C5.46637 42.6077 7.02971 36.1384 9.48637 32.1231C11.943 28.1077 14.3997 27.4384 14.3997 27.4384V45.9539ZM27.7997 36.5846L18.8664 38.5923V28.1077L27.7997 24.7616V36.5846Z" fill="#1190CD"/>
</svg>
