<svg xmlns="http://www.w3.org/2000/svg" width="93" height="40" viewBox="0 0 93 40" fill="none">
<path fill-rule="evenodd" clip-rule="evenodd" d="M48.4535 13.1841L39.2906 24.8774H46.0608L44.8842 30.5366H29.2463L29.3934 29.8244L38.8121 17.7204H32.5945C32.9987 15.9583 33.2566 14.2334 33.6626 12.4727H48.6005L48.4535 13.1841Z" fill="#FF5A00"/>
<path fill-rule="evenodd" clip-rule="evenodd" d="M79.4658 22.717C79.3532 24.3638 80.0386 25.6349 81.5256 25.6349C84.3838 25.6349 86.0231 23.1668 86.1375 20.4732C86.2509 18.7159 85.4888 17.4804 83.6219 17.5933C81.0674 17.5933 79.581 20.1748 79.4658 22.717ZM79.9238 15.0503C81.3344 13.1406 83.6219 12.0563 85.7559 12.0563C91.512 12.1677 92.9605 16.9562 92.1608 21.6329C91.1299 26.4205 87.5477 30.9837 82.1355 30.9837C80.2291 30.9837 78.1709 30.3491 77.79 28.4789L75.3111 39.8864H69.2886L73.9764 18.1533C74.2828 16.771 74.5503 16.0593 72.9489 16.0593L73.7102 12.5807C76.0362 12.0944 80.762 11.5328 79.962 14.8993L79.9238 15.0503Z" fill="#FF5A00"/><path fill-rule="evenodd" clip-rule="evenodd" d="M62.8952 17.4104C62.116 17.2206 61.4134 17.1067 60.7096 17.1435C58.4852 17.2591 56.7809 18.731 56.0039 21.4503C55.4469 23.8675 56.1521 25.3405 58.2259 25.3021C60.1166 25.3021 61.3377 23.6421 61.9324 21.3755L62.8952 17.4104ZM69.6751 13.7071L67.3419 24.8509C67.0441 26.3213 67.1562 27.1519 68.7488 27.1519L68.0447 30.627C65.7111 31.1196 60.9303 31.6091 61.6353 27.9081C60.2639 29.9104 57.9294 30.9667 55.8182 30.9667C50.2601 30.8552 48.704 26.5495 49.7795 21.2989C51.261 15.03 56.1521 11.9328 62.1895 12.0456C64.8585 12.084 67.4515 12.6878 69.6751 13.7071Z" fill="#FF5A00"/>
<path fill-rule="evenodd" clip-rule="evenodd" d="M3.45927 21.5932C3.64363 22.9247 2.90112 24.1888 2.22615 25.2741C1.57846 26.3131 0.821693 27.5263 0.872414 28.8182C0.953432 30.8585 2.46854 31.17 3.14182 31.17C3.18883 31.17 3.23136 31.1669 3.2694 31.1652C5.08367 31.0462 8.30789 28.315 10.8219 27.7306C10.7187 25.9253 10.4542 24.2842 9.88898 23.2888C8.80387 21.3823 5.91528 20.5274 2.82863 19.92C3.13755 20.4297 3.3741 20.9762 3.45927 21.5932Z" fill="#00AEC8"/>
<path fill-rule="evenodd" clip-rule="evenodd" d="M28.0524 3.03234C27.4777 1.77627 26.4917 0.747716 25.1616 0.321435C24.6674 0.163708 24.159 0.0915527 23.6503 0.0915527C22.7971 0.0915527 21.9416 0.293475 21.1445 0.626969C18.7679 1.62237 17.3846 3.57113 16.4663 5.81325C14.4249 10.7951 14.6757 17.2235 11.4109 17.8497C11.1865 17.8925 10.9699 17.9128 10.7609 17.9128C8.73702 17.9128 7.37436 16.0326 5.98927 14.7922C5.05123 13.9493 3.86125 13.1582 2.5829 13.0484C2.49646 13.041 2.41046 13.037 2.32502 13.037C1.28808 13.037 0.389956 13.587 0.0801533 14.6667C0.000992753 14.9424 -0.0242355 15.3303 0.0257725 15.6189C0.0788078 15.9219 0.202258 16.2247 0.344994 16.496C0.697067 17.166 1.17708 17.7617 1.64643 18.3519C2.05109 18.8582 2.47011 19.3663 2.80503 19.9182C5.88915 20.5257 8.77559 21.3808 9.85973 23.2876C10.4246 24.2831 10.6889 25.9247 10.7921 27.7301C11.0936 27.6602 11.3851 27.6218 11.6618 27.6218C11.9591 27.6218 12.2397 27.6655 12.4998 27.7656C14.3229 28.4645 17.0242 32.6358 17.7296 33.4596C18.2308 34.0445 19.2008 34.7758 20.4321 34.7758C21.2556 34.7758 22.1962 34.4502 23.1927 33.5351C23.93 32.8601 24.2886 31.9974 24.3704 31.083C19.528 25.5989 15.1542 20.9219 17.087 16.7132C18.9923 12.5681 23.5848 12.2228 27.4847 11.4995C27.6221 11.2765 27.7497 11.048 27.8666 10.8137C28.615 9.30963 28.927 7.48726 28.7597 5.74628C28.6685 4.79586 28.4352 3.87024 28.0524 3.03234Z" fill="#007BA8"/><path fill-rule="evenodd" clip-rule="evenodd" d="M16.7422 16.3231C14.8295 20.5749 19.5513 25.7998 24.3434 31.3401C24.4083 30.5977 24.397 29.8773 24.16 29.1354C23.8717 28.2314 23.4062 27.4148 22.9737 26.5816C22.5378 25.7391 22.1177 24.8854 21.7995 23.9887C21.4914 23.1212 21.2827 22.2065 21.2888 21.278C21.2959 20.3813 21.5234 19.5221 21.9061 18.7194C23.1917 16.0234 25.774 14.3365 27.3668 11.867C27.4209 11.7826 27.5757 11.3021 27.6282 11.2164C24.121 11.2164 18.6276 12.1355 16.7422 16.3231Z" fill="#FF5A00"/>
</svg>