<svg width="29" height="35" viewBox="0 0 29 35" fill="none" xmlns="http://www.w3.org/2000/svg">
<path fill-rule="evenodd" clip-rule="evenodd" d="M3.45927 21.5933C3.64364 22.9247 2.90112 24.1888 2.22616 25.2741C1.57847 26.3131 0.821699 27.5263 0.872419 28.8183C0.953437 30.8585 2.46854 31.17 3.14182 31.17C3.18884 31.17 3.23137 31.167 3.26941 31.1653C5.08367 31.0462 8.3079 28.3151 10.8219 27.7306C10.7187 25.9253 10.4542 24.2842 9.88898 23.2888C8.80388 21.3824 5.91529 20.5275 2.82863 19.92C3.13756 20.4297 3.3741 20.9762 3.45927 21.5933Z" fill="#00AEC8"/>
<path fill-rule="evenodd" clip-rule="evenodd" d="M28.0524 3.03231C27.4777 1.77624 26.4917 0.747685 25.1616 0.321405C24.6673 0.163678 24.159 0.0915222 23.6503 0.0915222C22.7971 0.0915222 21.9416 0.293445 21.1445 0.626938C18.7679 1.62234 17.3846 3.5711 16.4663 5.81322C14.4249 10.7951 14.6757 17.2235 11.4109 17.8496C11.1865 17.8925 10.9699 17.9128 10.7609 17.9128C8.73701 17.9128 7.37435 16.0326 5.98927 14.7922C5.05123 13.9493 3.86124 13.1582 2.5829 13.0484C2.49645 13.0409 2.41045 13.037 2.32501 13.037C1.28807 13.037 0.38995 13.587 0.0801476 14.6667C0.000987031 14.9423 -0.0242412 15.3303 0.0257668 15.6189C0.0788021 15.9219 0.202252 16.2247 0.344988 16.4959C0.697062 17.166 1.17707 17.7617 1.64643 18.3519C2.05109 18.8581 2.4701 19.3663 2.80502 19.9181C5.88914 20.5257 8.77559 21.3808 9.85973 23.2876C10.4246 24.2831 10.6889 25.9246 10.792 27.7301C11.0936 27.6602 11.3851 27.6217 11.6618 27.6217C11.9591 27.6217 12.2397 27.6655 12.4998 27.7656C14.3229 28.4645 17.0242 32.6358 17.7296 33.4596C18.2308 34.0445 19.2008 34.7757 20.4321 34.7757C21.2556 34.7757 22.1962 34.4501 23.1927 33.5351C23.93 32.8601 24.2886 31.9974 24.3704 31.0829C19.528 25.5989 15.1542 20.9219 17.087 16.7132C18.9923 12.5681 23.5848 12.2228 27.4847 11.4995C27.6221 11.2765 27.7497 11.048 27.8666 10.8137C28.6149 9.3096 28.927 7.48723 28.7597 5.74625C28.6685 4.79583 28.4352 3.87021 28.0524 3.03231Z" fill="#007BA8"/>
<path fill-rule="evenodd" clip-rule="evenodd" d="M16.7423 16.3231C14.8295 20.5749 19.5513 25.7998 24.3434 31.3401C24.4084 30.5977 24.397 29.8773 24.16 29.1354C23.8717 28.2314 23.4062 27.4148 22.9737 26.5816C22.5378 25.7391 22.1177 24.8854 21.7995 23.9887C21.4914 23.1212 21.2827 22.2065 21.2888 21.278C21.2959 20.3813 21.5234 19.5221 21.9061 18.7194C23.1918 16.0234 25.7741 14.3365 27.3668 11.867C27.4209 11.7826 27.5757 11.3021 27.6282 11.2164C24.121 11.2164 18.6276 12.1355 16.7423 16.3231Z" fill="#FF5A00"/>
</svg>
